PathFileType	4	(X/Y/Z)	61_1_11_p1_0-867_filt_butterworth.trc
DataRate	CameraRate	NumFrames	NumMarkers	Units	OrigDataRate	OrigDataStartFrame	OrigNumFrames
60.0	60.0	6	27	m	60.0	0	867
Frame#	Time	RHip			RKnee			RAnkle			RBigToe			RSmallToe			RHeel			LHip			LKnee			LAnkle			LBigToe			LSmallToe			LHeel			Neck			Head			Nose			RShoulder			RElbow			RWrist			RThumb			RIndex			RPinky			LShoulder			LElbow			LWrist			LThumb			LIndex			LPinky			
		X1	Y1	Z1	X2	Y2	Z2	X3	Y3	Z3	X4	Y4	Z4	X5	Y5	Z5	X6	Y6	Z6	X7	Y7	Z7	X8	Y8	Z8	X9	Y9	Z9	X10	Y10	Z10	X11	Y11	Z11	X12	Y12	Z12	X13	Y13	Z13	X14	Y14	Z14	X15	Y15	Z15	X16	Y16	Z16	X17	Y17	Z17	X18	Y18	Z18	X19	Y19	Z19	X20	Y20	Z20	X21	Y21	Z21	X22	Y22	Z22	X23	Y23	Z23	X24	Y24	Z24	X25	Y25	Z25	X26	Y26	Z26	X27	Y27	Z27	
0	0.0	0.29454265035757243	0.6947896496879759	0.7742430829261969	0.2939142390256354	0.27632120630238743	0.7784822001550817	0.2920288797114573	-0.16237833852502137	0.8765270699291091	0.30302880194258647	-0.1522009789236382	0.6702997195590243	0.36403415529799327	-0.1528161356009642	0.7045119104800038	0.2729874525892403	-0.23340192509242402	0.9309057671826663	0.08311824544726085	0.6661007141203126	0.8048022246853765	0.0883212993499908	0.2511634760217153	0.8050072596339491	0.13035069846595404	-0.15867810335649318	0.8485984064879931	0.14943233252737392	-0.15086733526570817	0.6660535598970677	0.07879280099646283	-0.16604926449680424	0.7150303292190054	0.14928246267899453	-0.25434785733655313	0.9367145607232134	0.21523367054155906	1.25654360210889	0.7391373051346914	0.21351682866178054	1.499632952566137	0.7272462039155427	0.2192933844178995	1.3775036918728054	0.6444715433365638	0.35808396166257533	1.148581788030219	0.7989651173839284	0.3799248427853247	0.9197053077595159	0.6959827091742552	0.28248348347854824	0.7300809987841144	0.5824501845351322	0.2138425429957675	0.5910356023411703	0.6390450890690473	0.2100261001751435	0.5908813886521487	0.6121909830394119	0.21390027420617114	0.6123635819575879	0.5959007649770731	0.0476893490201964	1.1540540795342769	0.7800801902276451	0.02100568296958216	0.9097546332657573	0.6647000276855093	0.15930662777314422	0.7264257546336687	0.5724454151180082	0.2477974616575986	0.6341245159732793	0.6082775962603058	0.2436778025042075	0.6252517333002203	0.5928615894029248	0.19945954569259888	0.6260699218946771	0.5686246729588613	
1	0.0166666666666666	0.295749004143779	0.6953847403580047	0.7711125970452922	0.2943626477191412	0.2761568825724626	0.7776828778465408	0.2932981515985827	-0.16258537504647674	0.8767152171388558	0.30278933447896406	-0.15187966853939375	0.6698025603301454	0.35892050980213125	-0.15640986937569573	0.7097462781808216	0.2738798618736123	-0.23704146926822592	0.9352791113061254	0.08445712770566335	0.6667959494948081	0.8037348864403363	0.08957433086182005	0.2510066886834328	0.8036504133949637	0.1321485106474721	-0.16018693962065172	0.8498619740333394	0.1478938229792271	-0.14204883080756953	0.6585671541649359	0.08503059954385193	-0.1576415869226193	0.7081246342364915	0.14932176117924192	-0.2553544504268855	0.9395487339144244	0.21693702139814802	1.2550925672832403	0.7419513524788115	0.21305853056222704	1.4968714923806556	0.7271316588652098	0.2216840537201521	1.3771577976285145	0.6460562914286697	0.36045500360806626	1.1483402874478248	0.7959035798364376	0.3759897698002778	0.9133713092336809	0.6998234637500738	0.2815218751459714	0.7298088876920263	0.5796115541129376	0.21477223735521267	0.5917271834583583	0.6378338059385846	0.2101089945687559	0.5900771221201774	0.6134373276818937	0.21256744733065075	0.6178171085978292	0.588100106474143	0.04928727028352335	1.154751208574576	0.7809451331541264	0.025358921391456204	0.9076734583236877	0.6716232385235268	0.15628222441832326	0.723383718936087	0.5788027031794575	0.24621055644022624	0.6354214306804711	0.6024401121580012	0.24454534676476503	0.622343493543048	0.5941854234866533	0.19942797533269463	0.6236039394697505	0.5687652476697429	
2	0.0333333333333333	0.29704018324595677	0.6962178736421674	0.7679598394167316	0.29472743789654887	0.2759512962988955	0.7769156037608514	0.29422361788469936	-0.16304240784261206	0.8772504925878859	0.3026468637555747	-0.15167360855755033	0.6694470947177691	0.35588381243163325	-0.15885205039797115	0.7128995639505473	0.2746634561434943	-0.24022254629994974	0.9393232901865085	0.08582089833159322	0.6680138969615509	0.8012123889187448	0.09070911327391286	0.25109591253971386	0.8020257786882419	0.13355355583552414	-0.16149030151329283	0.850887863423999	0.1472423740367437	-0.13797835314001877	0.6553970332471514	0.08895746511083659	-0.1524526295836246	0.7038934100389849	0.14931281965277265	-0.25605423272966765	0.9416068660173468	0.21848634950599258	1.2539353115127296	0.745074665666696	0.21366581873959273	1.4955890761714061	0.7272331562070266	0.22344237100259867	1.3770712798983564	0.646858199221582	0.3629988112669074	1.148772100723811	0.7929727672071759	0.37380656206258667	0.9108746196920541	0.7005403791353845	0.28095922399465734	0.729913582932678	0.5777458314765431	0.21533086386060635	0.5924183849474433	0.6359455588805295	0.21019432651049774	0.5901889000107149	0.6141328838358981	0.2116511163038415	0.6221442963105562	0.5814328493874422	0.050421251715406554	1.1555236564482332	0.7815195698366779	0.028626848425237925	0.9064642259038617	0.6760642746591002	0.1543955734323042	0.7214321544568454	0.5825536459281025	0.24534476776954742	0.6363397297074567	0.5984388250722595	0.24488874715441794	0.6205314455576069	0.5944092231737794	0.19941555350644052	0.6221136088973188	0.5687501074819662	
3	0.05	0.29840651798374024	0.6972601703179981	0.7647988071203131	0.29501541874424664	0.2757046501766651	0.7761829269878625	0.2948372070939151	-0.16372197648726675	0.8780947386195722	0.30258049536493425	-0.1515595236492634	0.6692015681326243	0.3545077607233543	-0.16038227830903815	0.7144576832747014	0.27534491172392317	-0.24297494251506263	0.943047818609764	0.08720593128934384	0.6696910426487415	0.7974058401062436	0.09173439877952938	0.2514069739684954	0.8001714458660155	0.13459979158947216	-0.16259994763867916	0.8516954542024019	0.14726218407219388	-0.13754233629320856	0.6554687963429052	0.0909588615802592	-0.14993740778301398	0.7019244848959171	0.14926220988712538	-0.2564790800877113	0.9429729208801504	0.21987480442417248	1.2530491231746175	0.7484156669445488	0.21507700625180998	1.4954801289851285	0.7276013472433076	0.2246873100110174	1.3771417572389135	0.6471279795849743	0.36559945708187636	1.1497516950100277	0.7901874320850655	0.37309558507119917	0.9113261478841116	0.698929962997169	0.28073016265212525	0.7302704218173507	0.576764820698328	0.21555090674664867	0.5931852008228589	0.6336148546082303	0.21023846285604797	0.5911313394303584	0.614245633696447	0.21110123096294392	0.6254810288061454	0.5759091873291623	0.05116679259375643	1.156314538739011	0.7818585015656022	0.03096676805371258	0.9059219727570308	0.678566462484864	0.15348724466117608	0.7204243653571464	0.58414651243119	0.24504016265818995	0.6369474973816008	0.595934883961429	0.2448009292707149	0.6195936018480944	0.5938680776431471	0.1994198509333343	0.6214713147300631	0.5686322021188066	
4	0.0666666666666666	0.29983833867676385	0.6984827511630317	0.7616434972358341	0.29523339944862265	0.27541714690075014	0.7754873966174234	0.2951708477503374	-0.16459662055428118	0.879209797577287	0.3025693348995585	-0.15151413848568857	0.6690342259854399	0.3543760522141497	-0.16124015275014458	0.7149065516388032	0.2759309049399357	-0.24532844424103095	0.9464622113618417	0.08860860054320865	0.6717638726845816	0.792486347988474	0.09265893957192978	0.2519156993477144	0.7981255052805164	0.13532117546867828	-0.16352763660107406	0.8523041259109779	0.14773745145784775	-0.1396272142972909	0.6577080426513893	0.09142025283496225	-0.14955093682398146	0.7018056870767195	0.14917650366983867	-0.2566608683438278	0.9437308623510051	0.2210955357117676	1.2524112906461617	0.751882778558574	0.21703040615681127	1.4962390758685633	0.7282868832763669	0.22553784449118644	1.37726684820677	0.6471163453885198	0.3681410134957507	1.1511535374583268	0.7875623270590288	0.3735772043250634	0.9138368025593306	0.6957887230024092	0.2807693237458942	0.7307547416573252	0.5765803258506719	0.21546485024803982	0.5941036250990387	0.6310761998350352	0.21019777046108545	0.592819057485706	0.6137435594585616	0.2108677411451586	0.6279631897949729	0.571539313911495	0.05159939219648339	1.15706697103067	0.7820169296312025	0.03253598425966543	0.9058417356339471	0.6796731283934531	0.153397807951028	0.7202136557981926	0.5840295717559661	0.24513680811878164	0.6373128180302691	0.5945894377838579	0.24437481871120437	0.6193079749187081	0.592897076073601	0.19943843833287375	0.6215494415206648	0.5684644813035393	
5	0.0833333333333333	0.3013259756446622	0.6998567369548027	0.7585079068430927	0.2953881891960651	0.27508898916612934	0.7748315617393825	0.29525646837807407	-0.1656388796174951	0.880557511804403	0.3025924879519639	-0.15151417773798537	0.6689133136869452	0.3550723844408753	-0.16166527336254252	0.7147320845283737	0.2764281121165688	-0.24731283780532123	0.9495759832286901	0.09002528005748107	0.6741688731972727	0.7866250205510774	0.0934914878443742	0.25259791505530826	0.7959260472839759	0.13575166503250458	-0.1642851270047403	0.8527332580921566	0.1484523745659758	-0.14311942118242277	0.6610403713717952	0.09072710275778834	-0.1507482320097251	0.7031248448508244	0.14906227278845116	-0.25663147334082886	0.9439646542780806	0.2221416929278583	1.25199910230462	0.7553844227549762	0.21926433151252947	1.497560341868449	0.7293404156085195	0.22611294818888444	1.3773441713585075	0.6470740095018924	0.3705075529513089	1.1528520952205576	0.785112204717989	0.3749717853231284	0.9175174924671856	0.6919131668180871	0.2810113399034839	0.7312418797638802	0.5771041510059541	0.21510517859948042	0.595249651790414	0.6285641012742925	0.21002861618128954	0.5951666712833513	0.612594643317264	0.2109005966876866	0.6297266629874129	0.5683334227466322	0.051794549801497995	1.1577240689069699	0.7820498553237818	0.03349180102588181	0.9060185512853604	0.6799275987775024	0.15396783314794935	0.7206533299411848	0.582651092969678	0.2454747711639509	0.6375037759808234	0.5940636354978942	0.24370334107343558	0.6194525772736423	0.5918313076439856	0.19946888642455715	0.6222203738218023	0.5682998947594402	
